<svg xmlns="http://www.w3.org/2000/svg" id="Layer_1" viewBox="0 0 1435.89 358.76"><defs><style>.cls-1{fill:#fff;}</style></defs><g><path class="cls-1" d="M540.87,243.59c6.72,4.01,17.46,7.23,27.88,7.23,13.78,0,20.99-6.57,20.99-16.15s-6.2-14.79-20.48-21.01c-19.5-8.41-31.58-20.48-31.58-37.28,0-21.17,16.63-37.47,44.5-37.47,12.28,0,21.68,2.85,27.73,5.88l-5.2,20.32c-4.52-2.35-12.42-5.53-23.03-5.53-13.1,0-18.97,7.04-18.97,14.28,0,9.23,6.37,13.44,22.17,20.67,20.67,9.23,29.91,21.15,29.91,38.13,0,22.53-16.97,39-47.04,39-12.77,0-25.71-3.53-31.76-7.23l4.89-20.82Z"/><path class="cls-1" d="M705.9,249.12v20.82h-72.23V140.75h69.55v20.82h-44.69v31.27h42.16v20.32h-42.16v35.97h47.37Z"/><path class="cls-1" d="M783.46,140.75l36.11,129.2h-26.03l-9.26-34.1h-34.6l-8.91,34.1h-25.19l36.62-129.2h31.27Zm-30.25,76.28h27.57l-7.75-29.42c-2.01-8.06-4.19-18.49-5.86-26.39h-.51c-1.68,8.08-3.87,18.66-5.71,26.23l-7.73,29.57Z"/><path class="cls-1" d="M836.26,142.41c9.08-1.66,20.85-2.66,33.44-2.66,21.5,0,36.12,4.53,46.86,13.42,12.27,10.1,19.49,26.04,19.49,49.39,0,27.74-9.56,43.87-19.49,52.76-11.75,10.58-29.71,15.81-52.24,15.81-11.94,0-21.5-.83-28.07-1.66v-127.05Zm24.69,108.41c2.53,.48,6.23,.48,9.59,.48,23.7,.17,39.49-14.47,39.49-48.4,0-29.23-14.29-43.68-37.31-43.68-5.21,0-9.08,.52-11.77,1v90.6Z"/><path class="cls-1" d="M954.77,142.41c8.57-1.49,20.67-2.66,33.26-2.66,16.3,0,49.22,2.01,49.22,36.63,0,15.79-10.08,27.37-22.17,32.1v.48c9.06,3.53,14.1,12.26,17.14,25.37,3.67,15.32,7.05,30.75,9.57,35.62h-25.54c-1.84-3.7-5.04-14.94-8.07-30.57-3.35-16.64-8.55-21.86-20.31-21.86h-8.4v52.43h-24.69v-127.54Zm24.69,56.64h10.25c14.11,0,22.67-8.23,22.67-20.49,0-16.63-12.42-19.85-21.49-19.85-5.57,0-9.42,.35-11.44,1.04v39.31Z"/><path class="cls-1" d="M1159.81,203.75c0,45.03-22.85,68.03-54.94,68.03-34.12,0-53.42-28.53-53.42-66.01s21.33-67.03,55.09-67.03c35.79,0,53.26,30.56,53.26,65Zm-82.32,1.5c0,25.39,9.9,46.22,28.23,46.22s28.05-20.67,28.05-46.73c0-23.67-8.92-45.7-27.9-45.7s-28.38,22.52-28.38,46.21Z"/><path class="cls-1" d="M1272.75,140.75v129.2h-24.85l-27.72-53.42c-6.89-13.28-14.46-29.24-19.83-43.35h-.67c1,15.96,1.51,34.1,1.51,57.12v39.65h-22.52V140.75h26.87l27.23,52.43c6.9,12.92,14.12,28.71,19.32,42.16h.33c-1.51-16.46-2.18-34.78-2.18-55.79v-38.81h22.5Z"/><path class="cls-1" d="M1298.01,269.95V140.75h24.87v129.2h-24.87Z"/><path class="cls-1" d="M1401.3,204.08l34.59,65.87h-27.88l-11.6-25.04c-4.37-8.89-7.38-15.79-10.59-23.52h-.49c-2.7,7.73-5.71,14.8-9.58,23.69l-10.58,24.87h-27.22l33.45-65.7-32.26-63.5h27.7l11.6,25.39c3.36,7.37,5.88,13.92,8.91,21.15h.34c3.01-8.08,5.22-13.96,8.4-21.32l10.92-25.21h27.38l-33.08,63.33Z"/></g><g><path class="cls-1" d="M387.36,300.19h-.08c-21.8,21.78-51.89,35.27-85.06,35.27h-.03c-32.15,0-62.38-12.53-85.12-35.26l-.04,.04s-.02-.02-.02-.02c-27.14-27.07-63.17-41.98-101.5-41.98h-.07c-39.63,.02-75.43,16.27-101.42,42.34-5.05,5.07-9.77,10.46-14.02,16.22H30.43c21.8-21.77,51.85-35.25,85-35.26,.03,0,.04-.01,.07-.01,32.1,0,62.29,12.49,85.02,35.16,.04,.04,.09,.08,.12,.12l.05-.04c27.13,27.07,63.17,41.99,101.49,42h.03c39.63,0,75.42-16.24,101.42-42.28,5.08-5.08,9.81-10.5,14.09-16.29h-30.36Z"/><path class="cls-1" d="M359.36,272.18h-.08c-14.63,14.61-34.81,23.66-57.08,23.66-22.24-.01-42.43-9.05-57.05-23.66h-29.85c3.89,5.91,8.49,11.28,13.48,16.27,18.83,18.86,44.72,30.67,73.42,30.69,28.7,0,54.6-11.81,73.43-30.67,4.99-4.99,9.59-10.37,13.5-16.29h-29.77Z"/><path class="cls-1" d="M331.34,244.14h-.02c-7.45,7.45-17.76,12.07-29.11,12.07-11.35,0-21.65-4.62-29.1-12.07h-28.35c3.1,6.09,7.17,11.58,11.96,16.34h0c4.7,4.66,10.08,8.61,16.01,11.69,8.85,4.61,18.82,7.33,29.48,7.33s20.64-2.72,29.49-7.33c5.92-3.08,11.3-7.02,15.97-11.7,4.78-4.8,8.9-10.24,12-16.34h-28.33Z"/><path class="cls-1" d="M10.42,226.96V93.54l19.93,19.91c20.02,20.01,45.83,32.14,73.65,34.8V0l105.59,105.55c25.99-22.17,58.69-34.25,93.23-34.25,38.46,0,74.62,14.99,101.83,42.18,2.31,2.31,5.9,6.36,10.05,11.08,7.68,8.74,19.3,21.95,25.14,25.87,1.65,1.14,6.81,5.14,7.43,12,.43,4.39-1.17,8.61-4.46,11.86-.9,1.04-34.4,37.35-134.44,45.62-.47,.07-21.36,2.4-104.77,7.03l-44.78,.02H10.42Zm105.47-54.8h0c-29.7,0-58.23-8.95-82.13-25.54v57.01H202.95c81.64-4.57,102.93-6.92,103.14-6.94,66.46-5.49,100.06-23.8,113.13-33.07-6.21-5.78-13.58-14.02-22.05-23.65-3.73-4.24-6.94-7.91-9.02-9.99-22.79-22.79-53.09-35.34-85.33-35.34s-62.53,12.55-85.31,35.34c-24.43,24.43-56.1,39-90.16,41.72,0,0-6.42,.45-11.45,.45Zm11.45-115.82v91.93c23.97-2.28,46.45-11.6,65.02-26.93L127.34,56.34Z"/></g></svg>